<?xml version="1.0" encoding="UTF-8" standalone="no"?>
<!-- Created with Inkscape (http://www.inkscape.org/) -->

<svg
   xmlns:dc="http://purl.org/dc/elements/1.1/"
   xmlns:cc="http://creativecommons.org/ns#"
   xmlns:rdf="http://www.w3.org/1999/02/22-rdf-syntax-ns#"
   xmlns:svg="http://www.w3.org/2000/svg"
   xmlns="http://www.w3.org/2000/svg"
   xmlns:sodipodi="http://sodipodi.sourceforge.net/DTD/sodipodi-0.dtd"
   xmlns:inkscape="http://www.inkscape.org/namespaces/inkscape"
   width="163mm"
   height="144mm"
   viewBox="0 0 163 144"
   version="1.1"
   id="svg8"
   inkscape:version="0.92.4 5da689c313, 2019-01-14"
   sodipodi:docname="logo.svg"
   inkscape:export-filename="/home/tomasi/Documents/work/instrumentdb/images/logo.png"
   inkscape:export-xdpi="83.540001"
   inkscape:export-ydpi="83.540001">
  <defs
     id="defs2" />
  <sodipodi:namedview
     id="base"
     pagecolor="#ffffff"
     bordercolor="#666666"
     borderopacity="1.0"
     inkscape:pageopacity="0.0"
     inkscape:pageshadow="2"
     inkscape:zoom="0.49497475"
     inkscape:cx="-192.15973"
     inkscape:cy="439.30887"
     inkscape:document-units="mm"
     inkscape:current-layer="layer1"
     showgrid="false"
     fit-margin-top="0"
     fit-margin-left="0"
     fit-margin-right="0"
     fit-margin-bottom="0"
     inkscape:window-width="1920"
     inkscape:window-height="1015"
     inkscape:window-x="0"
     inkscape:window-y="36"
     inkscape:window-maximized="1" />
  <metadata
     id="metadata5">
    <rdf:RDF>
      <cc:Work
         rdf:about="">
        <dc:format>image/svg+xml</dc:format>
        <dc:type
           rdf:resource="http://purl.org/dc/dcmitype/StillImage" />
        <dc:title></dc:title>
      </cc:Work>
    </rdf:RDF>
  </metadata>
  <g
     inkscape:label="Livello 1"
     inkscape:groupmode="layer"
     id="layer1"
     transform="translate(-15.676964,-117.53385)">
    <rect
       style="fill:#ffffff;fill-opacity:1;stroke:none;stroke-width:6;stroke-linecap:round;stroke-miterlimit:4;stroke-dasharray:none;stroke-dashoffset:0;stroke-opacity:1"
       id="rect826"
       width="163"
       height="144"
       x="16.211504"
       y="118.27738"
       inkscape:export-xdpi="83.540001"
       inkscape:export-ydpi="83.540001" />
    <g
       id="g916"
       transform="rotate(45.312528,70.493332,215.44615)"
       style="fill:#ffffff;fill-opacity:1;stroke-width:6;stroke-miterlimit:4;stroke-dasharray:none">
      <rect
         y="151.60538"
         x="53.974049"
         height="28.865112"
         width="26.080711"
         id="rect910"
         style="fill:#ffffff;fill-opacity:1;stroke:#000000;stroke-width:6;stroke-linecap:round;stroke-miterlimit:4;stroke-dasharray:none;stroke-dashoffset:0;stroke-opacity:1" />
      <rect
         y="140.38007"
         x="49.177597"
         height="11.225318"
         width="35.673615"
         id="rect912"
         style="fill:#ffffff;fill-opacity:1;stroke:#000000;stroke-width:6;stroke-linecap:round;stroke-miterlimit:4;stroke-dasharray:none;stroke-dashoffset:0;stroke-opacity:1" />
    </g>
    <path
       style="fill:#ffffff;fill-opacity:1;stroke:#000000;stroke-width:6;stroke-linecap:round;stroke-miterlimit:4;stroke-dasharray:none;stroke-dashoffset:0;stroke-opacity:1"
       d="m 67.687751,165.22244 a 47.384905,43.972165 0 0 0 -47.385277,43.972 47.384905,43.972165 0 0 0 0.03239,0.85007 h -0.02325 v 47.92214 H 115.0635 v -47.92214 h -0.0366 a 47.384905,43.972165 0 0 0 0.0456,-0.85007 47.384905,43.972165 0 0 0 -47.384881,-43.972 z"
       id="path918"
       inkscape:connector-curvature="0" />
    <path
       style="fill:#000000;stroke-width:0.26458332"
       d="m 61.998932,249.28801 c -10.56834,-0.80452 -17.64356,-2.45331 -21.49185,-5.00843 -2.38896,-1.58618 -2.4508,-1.78797 -2.45195,-8.0004 l -9.9e-4,-5.36007 1.38907,0.77595 c 3.38896,1.89313 9.707,3.52883 17.13177,4.4353 5.34514,0.65257 16.87985,0.65257 22.224986,0 7.432723,-0.90744 12.555093,-2.19081 16.470323,-4.12651 l 2.05052,-1.01378 -0.001,5.3246 c -8e-4,4.78463 -0.0525,5.40907 -0.50919,6.15799 -1.70775,2.80069 -8.2916,5.10958 -18.010653,6.31616 -3.149176,0.39096 -13.991126,0.71309 -16.801046,0.49919 z m -0.26458,-16.94102 c -11.78122,-0.7698 -21.17054,-3.5285 -23.17003,-6.80763 -0.45696,-0.74941 -0.5083,-1.37386 -0.50919,-6.19351 l -9.9e-4,-5.36008 1.38907,0.77596 c 3.38896,1.89313 9.707,3.52882 17.13177,4.43529 5.34514,0.65258 16.87985,0.65258 22.224986,0 7.481363,-0.91337 12.617493,-2.2054 16.470323,-4.1432 l 2.05052,-1.03132 -0.001,5.34171 c -8e-4,4.80154 -0.0524,5.42599 -0.50919,6.17515 -1.74088,2.85502 -8.84807,5.27391 -18.936699,6.445 -2.51828,0.29232 -13.45493,0.53805 -16.13958,0.36263 z m 0,-16.93333 c -9.51363,-0.62164 -17.72993,-2.58095 -21.39369,-5.10168 -2.21904,-1.52674 -2.28439,-1.75211 -2.28553,-7.8811 l -9.9e-4,-5.34171 2.05052,1.03132 c 6.11888,3.07753 15.31045,4.61339 27.58282,4.60896 12.306246,-0.004 21.541389,-1.54588 27.651119,-4.61524 l 1.98221,-0.9958 -0.001,5.32709 c -8e-4,4.78712 -0.0525,5.41157 -0.50919,6.16053 -0.49793,0.8166 -2.01308,1.99977 -3.59086,2.80407 -2.66935,1.36075 -8.46191,2.77144 -14.419793,3.51173 -3.198446,0.39742 -13.823936,0.70364 -17.065626,0.49183 z m 0,-16.93333 c -10.92787,-0.71405 -20.24355,-3.27891 -22.78159,-6.2724 -3.48113,-4.10582 3.60343,-8.04624 17.75451,-9.87501 4.32669,-0.55914 16.59909,-0.63734 20.90208,-0.13317 12.171719,1.42611 19.709479,4.47726 19.709479,7.97805 0,3.47003 -7.57133,6.56161 -19.444899,7.93989 -2.51828,0.29233 -13.45493,0.53806 -16.13958,0.36264 z"
       id="path826"
       inkscape:connector-curvature="0" />
    <path
       style="fill:#000000;stroke-width:0.13924249"
       d="m 173.46126,157.43615 c 2.79817,-0.50667 4.32123,-1.74608 4.33026,-3.52381 0.004,-0.78168 -0.5441,-2.40092 -1.17975,-3.48549 -1.74749,-2.98164 -5.26926,-6.52912 -10.04901,-10.12238 -1.71298,-1.28775 -5.48036,-3.86731 -5.54533,-3.79692 -0.0226,0.0245 0.011,0.35785 0.0748,0.74076 0.0637,0.38292 0.11964,1.22008 0.1242,1.86036 l 0.008,1.16415 1.35761,1.42212 c 2.39408,2.50782 3.4123,4.34838 3.43402,6.20742 0.0101,0.86395 -0.0498,1.16731 -0.34397,1.74053 -1.74668,3.40418 -9.30926,3.31913 -19.55453,-0.2199 -12.75568,-4.40621 -25.21382,-12.96313 -27.51543,-18.89908 -0.42941,-1.10747 -0.4433,-2.67078 -0.0306,-3.4403 0.56469,-1.05283 1.52034,-1.73637 3.10798,-2.22305 0.99612,-0.30535 3.86647,-0.42667 5.54731,-0.23445 l 1.30042,0.1487 0.89547,-0.68635 c 0.49252,-0.37749 1.17618,-0.85084 1.51926,-1.0519 0.34307,-0.20105 0.62376,-0.41325 0.62376,-0.47155 0,-0.25568 -6.2711,-1.98607 -9.60773,-2.65107 -4.27238,-0.85149 -8.76702,-1.11303 -11.1394,-0.64821 -4.14749,0.81263 -5.21495,2.72501 -3.50639,6.28172 4.81007,10.01304 31.47337,25.60306 52.38051,30.62684 5.52591,1.32783 10.75644,1.80721 13.7682,1.26186 z m -29.22412,-0.83074 c 1.36061,-0.23181 2.05953,-0.42485 3.39257,-0.937 l 1.09508,-0.42073 -2.62675,-1.01053 c -6.48106,-2.49333 -13.41521,-5.80604 -19.22427,-9.18417 -0.98035,-0.5701 -1.80476,-0.97302 -1.83201,-0.89536 -0.0834,0.23779 0.669,2.21105 1.343,3.52199 2.40676,4.68124 7.07987,8.07287 12.28651,8.91725 1.56216,0.25334 4.10612,0.25725 5.56587,0.009 z m 11.69637,-7.81786 c 1.65676,-2.59509 2.53589,-5.72929 2.53216,-9.0274 -0.009,-8.2369 -5.75876,-15.14841 -13.92083,-16.7345 -1.48114,-0.28782 -4.4136,-0.31921 -5.8774,-0.0629 -1.49928,0.26251 -3.50538,0.92876 -4.87349,1.61856 -3.97212,2.00273 -7.18663,5.7026 -8.43439,9.70788 l -0.24934,0.8004 0.59934,0.5224 c 1.23573,1.0771 4.39451,3.36222 6.24345,4.51663 4.93739,3.08274 10.31198,5.60472 15.83481,7.43036 2.31873,0.76648 5.74137,1.65504 6.98927,1.81449 l 0.72336,0.0924 z"
       id="path945"
       inkscape:connector-curvature="0" />
  </g>
</svg>
